<svg id="e5Kob9cJHa81" xmlns="http://www.w3.org/2000/svg" xmlns:xlink="http://www.w3.org/1999/xlink" viewBox="0 0 1920 1080" shape-rendering="geometricPrecision" text-rendering="geometricPrecision"><defs><linearGradient id="e5Kob9cJHa85-fill" x1="0" y1="0.5" x2="1" y2="0.5" spreadMethod="pad" gradientUnits="objectBoundingBox" gradientTransform="translate(0 0)"><stop id="e5Kob9cJHa85-fill-0" offset="0%" stop-color="#000"/><stop id="e5Kob9cJHa85-fill-1" offset="100%" stop-color="#6b5949"/></linearGradient><linearGradient id="e5Kob9cJHa86-fill" x1="0" y1="0.5" x2="1" y2="0.5" spreadMethod="pad" gradientUnits="objectBoundingBox" gradientTransform="translate(0 0)"><stop id="e5Kob9cJHa86-fill-0" offset="25%" stop-color="#15122f"/><stop id="e5Kob9cJHa86-fill-1" offset="100%" stop-color="#6b5949"/></linearGradient><linearGradient id="e5Kob9cJHa87-fill" x1="0" y1="0.5" x2="1" y2="0.5" spreadMethod="pad" gradientUnits="objectBoundingBox" gradientTransform="translate(0 0)"><stop id="e5Kob9cJHa87-fill-0" offset="25%" stop-color="#15122f"/><stop id="e5Kob9cJHa87-fill-1" offset="100%" stop-color="#6b5949"/></linearGradient><linearGradient id="e5Kob9cJHa88-fill" x1="0" y1="0.5" x2="1" y2="0.5" spreadMethod="pad" gradientUnits="objectBoundingBox" gradientTransform="translate(0 0)"><stop id="e5Kob9cJHa88-fill-0" offset="25%" stop-color="#15122f"/><stop id="e5Kob9cJHa88-fill-1" offset="100%" stop-color="#6b5949"/></linearGradient><linearGradient id="e5Kob9cJHa89-fill" x1="0" y1="0.5" x2="1" y2="0.5" spreadMethod="pad" gradientUnits="objectBoundingBox" gradientTransform="translate(0 0)"><stop id="e5Kob9cJHa89-fill-0" offset="25%" stop-color="#15122f"/><stop id="e5Kob9cJHa89-fill-1" offset="100%" stop-color="#6b5949"/></linearGradient><linearGradient id="e5Kob9cJHa810-fill" x1="0" y1="0.5" x2="1" y2="0.5" spreadMethod="pad" gradientUnits="objectBoundingBox" gradientTransform="translate(0 0)"><stop id="e5Kob9cJHa810-fill-0" offset="25%" stop-color="#15122f"/><stop id="e5Kob9cJHa810-fill-1" offset="100%" stop-color="#6b5949"/></linearGradient><linearGradient id="e5Kob9cJHa817-fill" x1="0" y1="0.5" x2="1" y2="0.5" spreadMethod="pad" gradientUnits="objectBoundingBox" gradientTransform="translate(0 0)"><stop id="e5Kob9cJHa817-fill-0" offset="0%" stop-color="#5f95ff"/><stop id="e5Kob9cJHa817-fill-1" offset="100%" stop-color="#000"/></linearGradient><linearGradient id="e5Kob9cJHa818-fill" x1="0" y1="0.5" x2="1" y2="0.5" spreadMethod="pad" gradientUnits="objectBoundingBox" gradientTransform="translate(0 0)"><stop id="e5Kob9cJHa818-fill-0" offset="0%" stop-color="#2e1f67"/><stop id="e5Kob9cJHa818-fill-1" offset="100%" stop-color="#272727"/></linearGradient><linearGradient id="e5Kob9cJHa819-fill" x1="0" y1="0.5" x2="1" y2="0.5" spreadMethod="pad" gradientUnits="objectBoundingBox" gradientTransform="translate(0 0)"><stop id="e5Kob9cJHa819-fill-0" offset="0%" stop-color="#2e1f67"/><stop id="e5Kob9cJHa819-fill-1" offset="94%" stop-color="#313030"/></linearGradient></defs><g transform="translate(.39802-2.388113)"><ellipse rx="387.738234" ry="387.738234" transform="translate(128.895336 961.120202)" opacity="0.08" fill="#d2dbed" stroke-width="0"/><g transform="translate(.000001 0)"><ellipse rx="339.358599" ry="339.358599" transform="matrix(.908599-.41767 0.41767 0.908599 129.005362 952.761689)" fill="url(#e5Kob9cJHa85-fill)" stroke-width="0"/><ellipse rx="147.242367" ry="60.299255" transform="matrix(.642535 0.270303-.207687 0.49369 197.554286 728.16093)" fill="url(#e5Kob9cJHa86-fill)" stroke-width="0"/><ellipse rx="60.299255" ry="60.299255" transform="matrix(.504228-.301925 0.25089 0.418998 64.855619 941.908346)" fill="url(#e5Kob9cJHa87-fill)" stroke-width="0"/><ellipse rx="60.299255" ry="60.299255" transform="matrix(.455694-.07339 0.089694 0.556932 338.562161 946.333699)" fill="url(#e5Kob9cJHa88-fill)" stroke-width="0"/><ellipse rx="60.299255" ry="60.299255" transform="matrix(.427136-.296452 0.215867 0.311027 103.139323 822.038256)" fill="url(#e5Kob9cJHa89-fill)" stroke-width="0"/><ellipse rx="50.483097" ry="37.862323" transform="matrix(.920964-.440515 0.716712 1.498397 215.54147 995.614442)" fill="url(#e5Kob9cJHa810-fill)" stroke-width="0"/></g></g><g transform="matrix(.506901-.166424 0.166424 0.506901-339.05145 315.04318)"><path d="M0,0C28.756338,3.181352,581.368137,17.438875,628.2341,0s23.429708,126.29887,0,134.621592-602.934623,3.382287-628.2341,0-28.756338-137.802944,0-134.621592Z" transform="matrix(.774252-.592321 0.383138 0.500819 558.549722 741.384806)" fill="#282727" stroke-width="9" stroke-linecap="round" stroke-linejoin="round"/><path d="M76.445228,79.51694c26.7493-24.951456,124.276782-16.754938,216.411261-27.511495c92.276769-10.773169,114.334466-4.384613,128.33613,6.526478s12.846464,110.048248-8.982562,121.577178c-16.542368,8.736799-44.034315,8.67441-89.696291-7.666223-14.592787-5.222187-31.041338-12.106924-49.581329-20.898327-55.127706-26.140783-118.626798-31.318677-151.035024-24.625749-75.826361,15.659616-123.10566,52.247001-123.10566,52.247001s24.113563-49.707416,77.653475-99.648863Z" transform="matrix(.614674 0.788781-.788781 0.614674 1053.243629 134.474089)" fill="#9d9c9c" stroke-width="0"/><path d="M0,0c4.233571-14.907376,84.268703-12.154391,96.18012,0s18.634964,125.107826,0,134.449771-94.448285,13.059761-96.18012,0-4.233571-119.542395,0-134.449771Z" transform="matrix(.499959 0.651671-1.119206 0.858651 1252.589202 425.254149)" fill="#9d9c9c" stroke-width="0"/><path d="M0,0c0,0,142.440856-10.445306,154.523893,0s10.698439,98.039418,0,109.478272-154.523893,0-154.523893,0L0,0Z" transform="matrix(.789095-.614271 0.096278 0.123679 617.151992 770.232669)" fill="#b0b05e" stroke-width="0"/></g><g><ellipse rx="303.42202" ry="303.42202" transform="matrix(.430175 0 0 0.430175 1863.812211 59.141272)" fill="url(#e5Kob9cJHa817-fill)" stroke-width="0"/><path d="M1738.774291,23.017498c0,0-4.240652,5.102929-5.486647,11.617452-.624025,3.262637.446825,6.444435-.24251,14.722405-.440453,5.289243.689335,9.783917.689335,9.783917s261.049134,32.24046,261.049134,0s1.208553-13.106276-5.136464-36.123774-250.872848,0-250.872848,0Z" transform="translate(-.446825 0)" fill="url(#e5Kob9cJHa818-fill)" stroke-width="3.84"/><path d="M1727.947168,23.017498c0,11.08923,5.009131-1.340476,5.340476,10.276976.062479,2.190624,2.08878,6.416674,3.699346,11.170626.830643,2.451829,2.021853,4.779375,1.787301,7.596026c6.702375,7.080146,6.702375,8.489677,6.702375,8.489677s202.540152,40.697405,223.029894,3.720538-5.505041,6.096168,15.353278-24.493173-255.91267-27.8499-255.91267-16.76067Z" transform="translate(5.340476 64.087258)" opacity="0.73" fill="url(#e5Kob9cJHa819-fill)" stroke-width="3.84"/><path d="M1815.215513,132.157248c24.328079-6.08202,30.4101-4.210629,41.638444-1.403543s15.906821.935695,15.438973,8.889105-3.274934,11.696193-13.099735,7.485563-3.339481-4.21063-17.310364-6.082021-17.778212-5.146324-21.988841-5.614172-29.006556,2.807086-4.678477-3.274932Z" transform="translate(0 0.000002)" fill="#380450" stroke-width="1.84"/><path d="M1773.109222,78.354765c13.099735-7.017716,12.631888-8.889106,19.181755-10.760497s9.824801-7.953411,18.713907-1.403544s16.842516,7.95341,4.210629,9.824801-12.16404-6.944948-20.117451,4.210629-4.678477,11.155577-12.16404,11.155577-9.824799-11.623422-9.8248-13.026966Z" transform="translate(.000001 0.000001)" fill="#380450" stroke-width="1.84"/><path d="M1859.193195,8.177613c0,9.356953,3.274935,13.777563-2.339238,20.11745s-10.760498,6.339887,2.339237,6.339887s19.649603,11.617452,21.053146,0-14.035431-21.311013-21.053146-26.925185" transform="translate(.000001 0)" fill="#380450" stroke-width="1.84"/><path d="M1826.031325,179.835709c1.880623,0,11.019885.390158,25.448046,5.110144s12.770795,16.821292,20.813559,4.719986s22.02294-7.558956,14.988175-14.372482s21.732205-2.271177-7.034765-6.813527-27.298783-7.38132-40.7569-2.271175-13.458113,13.627056-13.458115,13.627054Z" transform="translate(.000001-8.406761)" fill="#380450" stroke-width="1.84"/></g></svg>
